# xmcd
#
# Track frame offsets:
#	150
#	18329
#	36149
#	53319
#	70785
#	89663
#	102408
#	122615
#	139830
#	164567
#
# Disc length: 2433 seconds
#
# Revision: 0
# Processed by: cddbd v1.5.1PL0 Copyright (c) Steve Scherf et al.
# Submitted via: audiograbber 1.83.01
#
DISCID=81097f0a
DTITLE=Dorothy Cox - Princess Dorothy
DYEAR=1900
DGENRE=Soul
TTITLE0=Mixed an Others
TTITLE1=Never give up
TTITLE2=Madman's paradise
TTITLE3=Everyday
TTITLE4=Something
TTITLE5=No man's land
TTITLE6=Everybody's got the Blues
TTITLE7=I'll be there
TTITLE8=Got to be strong
TTITLE9=Space walking
EXTD=All songs written and poduced by Dorothy Cox\nMarco Locurcio (Lead guitar)
EXTD=\nMarco Siniscalco (Bass]\nFabio Locurcio (Drums]\nDorothy Cox (Guitar, Vo
EXTD=cals]\nwww.neovisionprod.com/dotcox
EXTT0=
EXTT1=
EXTT2=
EXTT3=
EXTT4=
EXTT5=
EXTT6=
EXTT7=
EXTT8=
EXTT9=
PLAYORDER=
